<?xml version="1.0" standalone="no"?><!DOCTYPE svg PUBLIC "-//W3C//DTD SVG 1.1//EN" "http://www.w3.org/Graphics/SVG/1.1/DTD/svg11.dtd"><svg class="icon" width="200px" height="200.00px" viewBox="0 0 1024 1024" version="1.1" xmlns="http://www.w3.org/2000/svg"><path d="M512.768 341.333333C406.613333 341.333333 319.146667 426.837333 319.146667 534.101333S406.613333 725.333333 512.853333 725.333333c106.197333 0 193.664-85.504 193.664-192.768S619.008 341.333333 512.768 341.333333z m0 290.730667a99.413333 99.413333 0 0 1-99.925333-99.498667c0-55.978667 43.690667-99.498667 99.925333-99.498666s99.968 43.52 99.968 99.498666a99.413333 99.413333 0 0 1-99.968 99.498667z" fill="#172B4D" /><path d="M365.952 485.930667H89.514667c-26.538667 0-46.848 20.181333-46.848 46.634666s20.309333 46.634667 46.848 46.634667h276.48c26.538667 0 46.848-20.224 46.848-46.634667 0-26.453333-20.309333-46.634667-46.890667-46.634666zM934.485333 485.930667h-276.48c-26.538667 0-46.848 20.181333-46.848 46.634666s20.309333 46.634667 46.890667 46.634667h276.437333c26.538667 0 46.848-20.224 46.848-46.634667 0-26.453333-20.309333-46.634667-46.848-46.634666z" fill="#172B4D" /></svg>